:FULLY-SPECIFIED
:FORCE-ALL-JOINTS-BE-3DOF
:DEGREES
476
root 3.68341 16.2915 -7.07293 4.67944 60.943 -7.29267
lfemur -39.805 -0.448616 -21.1601
ltibia 49.4515 -0 0
lfoot -20.9009 -2.31512 -0.000616433
ltoes 16.5931 -0 0
rfemur -27.1127 -0.885496 11.4643
rtibia 68.779 -0 0
rfoot 20.6119 -1.32695 -0.226716
rtoes -27.1812 0 0
lowerback 1.99758 -0.234097 1.86231
upperback -0.459945 -0.241858 1.08696
thorax -1.584 -0.128805 0.0863254
lowerneck -8.41131 -6.69053 0.599765
upperneck 4.11538 -9.08643 1.44836
head 2.83915 -4.45267 -0.104289
lclavicle -1.81893e-14 -1.07144e-14 -1.78137e-30
lhumerus -48.352 -27.8322 108.831
lradius 54.7978 -0 0
lwrist 3.70575 0 0
lhand -8.13497 -5.11628 0.515063
lfingers 7.12502 -0 0
lthumb 17.7562 23.769 0.426488
rclavicle -1.81893e-14 -1.07144e-14 -1.78137e-30
rhumerus -51.9999 4.66195 -86.76
rradius 64.1708 -0 0
rwrist 17.0119 0 0
rhand -26.3305 -26.0992 0.0814757
rfingers 7.12502 -0 0
rthumb 0.226619 -56.0515 0.0781841
477
root 3.79286 16.3222 -7.0094 4.97017 62.6429 -6.52063
lfemur -38.5719 -2.17894 -21.5777
ltibia 48.7505 -0 0
lfoot -20.9559 -2.28996 -0.000539803
ltoes 16.9861 -0 0
rfemur -29.5598 -0.766716 11.228
rtibia 71.6909 -0 0
rfoot 20.2137 -0.0486169 -0.198476
rtoes -25.1909 0 0
lowerback 2.16091 -0.268606 1.51282
upperback -0.42492 -0.296527 0.971062
thorax -1.64028 -0.154215 0.164682
lowerneck -8.43346 -6.9155 0.403465
upperneck 4.23852 -9.37424 1.53271
head 2.89839 -4.59367 -0.0628796
lclavicle -1.4359e-14 -9.67049e-15 -1.55993e-30
lhumerus -48.5269 -28.2105 109.177
lradius 55.1021 -0 0
lwrist 3.95487 0 0
lhand -6.59297 -4.36623 0.450821
lfingers 7.12502 -0 0
lthumb 19.2411 24.414 0.373312
rclavicle -1.4359e-14 -9.67049e-15 -1.55993e-30
rhumerus -51.7455 5.46141 -87.3457
rradius 64.3755 -0 0
rwrist 17.6441 0 0
rhand -25.8362 -25.7292 0.0713423
rfingers 7.12502 -0 0
rthumb 0.704049 -55.6839 0.0684604
478
root 3.89473 16.3508 -6.95027 5.30402 64.2232 -5.7419
lfemur -37.4112 -3.78107 -22.0005
ltibia 48.0981 -0 0
lfoot -21.007 -2.26654 -0.000446774
ltoes 17.352 -0 0
rfemur -31.838 -0.665316 11.0036
rtibia 74.4013 -0 0
rfoot 19.8437 1.14106 -0.164213
rtoes -23.3384 0 0
lowerback 2.31314 -0.29983 1.18743
upperback -0.39222 -0.34735 0.863158
thorax -1.6927 -0.177798 0.237639
lowerneck -8.45339 -7.12497 0.220745
upperneck 4.35285 -9.6423 1.61072
head 2.95346 -4.72495 -0.0244601
lclavicle -1.07937e-14 -8.69877e-15 -1.29109e-30
lhumerus -48.6925 -28.5618 109.501
lradius 55.3853 -0 0
lwrist 4.18676 0 0
lhand -5.15855 -3.66986 0.372912
lfingers 7.12502 -0 0
lthumb 20.6226 25.0128 0.308818
rclavicle -1.07937e-14 -8.69877e-15 -1.29109e-30
rhumerus -51.5157 6.2079 -87.8884
rradius 64.566 -0 0
rwrist 18.2325 0 0
rhand -25.3761 -25.3849 0.0590424
rfingers 7.12502 -0 0
rthumb 1.14837 -55.3418 0.0566576
479
root 3.98687 16.3767 -6.89679 5.6682 65.6506 -4.97777
lfemur -36.349 -5.2224 -22.4116
ltibia 47.508 -0 0
lfoot -21.0533 -2.24536 -0.000344616
ltoes 17.6829 -0 0
rfemur -33.8988 -0.581353 10.7974
rtibia 76.8526 -0 0
rfoot 19.5097 2.21693 -0.126612
rtoes -21.6629 0 0
lowerback 2.45096 -0.327326 0.893075
upperback -0.362562 -0.393262 0.765542
thorax -1.74013 -0.19907 0.303642
lowerneck -8.47085 -7.31447 0.0554834
upperneck 4.456 -9.88485 1.68085
head 3.0032 -4.84371 0.0101844
lclavicle -7.56911e-15 -7.81993e-15 -9.95879e-31
lhumerus -48.8448 -28.8788 109.796
lradius 55.6415 -0 0
lwrist 4.39647 0 0
lhand -3.86214 -3.04191 0.287462
lfingers 7.12502 -0 0
lthumb 21.8714 25.553 0.23807
rclavicle -7.56911e-15 -7.81993e-15 -9.95879e-31
rhumerus -51.3138 6.8848 -88.3773
rradius 64.7383 -0 0
rwrist 18.7647 0 0
rhand -24.9601 -25.0736 0.0455381
rfingers 7.12502 -0 0
rthumb 1.55015 -55.0325 0.0436989
480
root 4.06711 16.3992 -6.85021 6.04204 66.8918 -4.25738
lfemur -35.4133 -6.47117 -22.7923
ltibia 46.9941 -0 0
lfoot -21.0937 -2.22691 -0.000241711
ltoes 17.9711 -0 0
rfemur -35.6935 -0.514317 10.6154
rtibia 78.9873 -0 0
rfoot 19.2195 3.15351 -0.0887706
rtoes -20.2038 0 0
lowerback 2.57109 -0.350692 0.636685
upperback -0.336671 -0.433203 0.680514
thorax -1.78145 -0.217549 0.361134
lowerneck -8.48561 -7.47952 -0.0884391
upperneck 4.54565 -10.0962 1.74161
head 3.04645 -4.94716 0.0402748
lclavicle -4.76103e-15 -7.05459e-15 -6.98502e-31
lhumerus -48.9793 -29.1542 110.055
lradius 55.8645 -0 0
lwrist 4.5791 0 0
lhand -2.73389 -2.49671 0.201486
lfingers 7.12502 -0 0
lthumb 22.9585 26.0221 0.16688
rclavicle -4.76103e-15 -7.05459e-15 -6.98502e-31
rhumerus -51.1424 7.47576 -88.8018
rradius 64.8883 -0 0
rwrist 19.2281 0 0
rhand -24.5979 -24.8026 0.0319375
rfingers 7.12502 -0 0
rthumb 1.89996 -54.7632 0.0306477
481
root 4.13329 16.4178 -6.81179 6.39653 67.9139 -3.61823
lfemur -34.6334 -7.49633 -23.1225
ltibia 46.5703 -0 0
lfoot -21.1269 -2.2117 -0.000147076
ltoes 18.2087 -0 0
rfemur -37.1739 -0.463341 10.4638
rtibia 80.7479 -0 0
rfoot 18.9807 3.92591 -0.0539902
rtoes -19.0004 0 0
lowerback 2.67024 -0.369558 0.425202
upperback -0.315274 -0.466113 0.610377
thorax -1.81555 -0.232758 0.408559
lowerneck -8.49746 -7.61567 -0.207139
upperneck 4.61945 -10.2705 1.79149
head 3.0821 -5.03249 0.0650352
lclavicle -2.44515e-15 -6.42341e-15 -4.25026e-31
lhumerus -49.0915 -29.381 110.27
lradius 56.0485 -0 0
lwrist 4.72971 0 0
lhand -1.8042 -2.04849 0.12253
lfingers 7.12502 -0 0
lthumb 23.8543 26.4078 0.101491
rclavicle -2.44515e-15 -6.42341e-15 -4.25026e-31
rhumerus -51.0043 7.96393 -89.1509
rradius 65.012 -0 0
rwrist 19.6103 0 0
rhand -24.2992 -24.5792 0.019432
rfingers 7.12502 -0 0
rthumb 2.18842 -54.5412 0.0186473
482
root 4.18323 16.4318 -6.78279 6.69554 68.6843 -3.10503
lfemur -34.0396 -8.26696 -23.3816
ltibia 46.2504 -0 0
lfoot -21.152 -2.20022 -6.98031e-05
ltoes 18.3881 -0 0
rfemur -38.2913 -0.427468 10.3485
rtibia 82.0767 -0 0
rfoot 18.8008 4.50861 -0.0256179
rtoes -18.0922 0 0
lowerback 2.74512 -0.383553 0.265574
upperback -0.299097 -0.490936 0.557432
thorax -1.84129 -0.244219 0.44436
lowerneck -8.50623 -7.71844 -0.296733
upperneck 4.67508 -10.4021 1.82901
head 3.10897 -5.0969 0.0836902
lclavicle -6.97196e-16 -5.94701e-15 -2.0172e-31
lhumerus -49.1771 -29.5519 110.432
lradius 56.1873 -0 0
lwrist 4.84339 0 0
lhand -1.10285 -1.71103 0.0581199
lfingers 7.12502 -0 0
lthumb 24.5303 26.6983 0.0481434
rclavicle -6.97196e-16 -5.94701e-15 -2.0172e-31
rhumerus -50.9019 8.33294 -89.4139
rradius 65.1054 -0 0
rwrist 19.8987 0 0
rhand -24.0738 -24.4106 0.00922208
rfingers 7.12502 -0 0
rthumb 2.4061 -54.3737 0.00884971
483
root 4.21479 16.4406 -6.76448 6.89983 69.1704 -2.76573
lfemur -33.6621 -8.75246 -23.5497
ltibia 46.0483 -0 0
lfoot -21.1679 -2.19297 -1.83921e-05
ltoes 18.5014 -0 0
rfemur -38.9972 -0.405967 10.2754
rtibia 82.9162 -0 0
rfoot 18.6872 4.87672 -0.00674904
rtoes -17.5184 0 0
lowerback 2.79245 -0.392289 0.164704
upperback -0.288866 -0.50661 0.523979
thorax -1.85756 -0.251451 0.46698
lowerneck -8.51168 -7.78338 -0.353336
upperneck 4.71019 -10.4853 1.85265
head 3.12595 -5.1376 0.0954611
lclavicle 4.07105e-16 -5.64603e-15 -5.31504e-32
lhumerus -49.2315 -29.6598 110.535
lradius 56.275 -0 0
lwrist 4.9152 0 0
lhand -0.660051 -1.4983 0.0153103
lfingers 7.12502 -0 0
lthumb 24.9571 26.8814 0.0126826
rclavicle 4.07105e-16 -5.64603e-15 -5.31504e-32
rhumerus -50.838 8.56631 -89.5798
rradius 65.1644 -0 0
rwrist 20.081 0 0
rhand -23.9314 -24.3041 0.00242982
rfingers 7.12502 -0 0
rthumb 2.54362 -54.2679 0.00233171
484
root 4.22579 16.4437 -6.75809 6.97404 69.3397 -2.6445
lfemur -33.53 -8.92142 -23.6091
ltibia 45.9779 0 0
lfoot -21.1734 -2.19044 0
ltoes 18.5409 0 0
rfemur -39.2433 -0.398685 10.2498
rtibia 83.2088 0 0
rfoot 18.6477 5.00504 0
rtoes -17.3184 0 0
lowerback 2.80895 -0.395314 0.129542
upperback -0.285297 -0.512072 0.512318
thorax -1.86323 -0.25397 0.474865
lowerneck -8.51357 -7.80601 -0.373066
upperneck 4.72242 -10.5143 1.86088
head 3.13186 -5.15179 0.0995613
lclavicle 7.92033e-16 -5.54112e-15 0
lhumerus -49.2505 -29.6974 110.571
lradius 56.3056 0 0
lwrist 4.94023 0 0
lhand -0.505724 -1.42422 0
lfingers 7.12502 0 0
lthumb 25.1059 26.9452 0
rclavicle 7.92033e-16 -5.54112e-15 0
rhumerus -50.8159 8.64771 -89.6376
rradius 65.185 0 0
rwrist 20.1445 0 0
rhand -23.8818 -24.267 0
rfingers 7.12502 0 0
rthumb 2.59155 -774.231 0
485
root 4.23495 16.4436 -6.74976 6.93288 69.5124 -2.65601
lfemur -33.4714 -8.9799 -23.5968
ltibia 46.0021 -0 0
lfoot -21.2023 -2.21974 0.00111554
ltoes 18.495 -0 0
rfemur -39.372 -0.345547 10.2355
rtibia 83.0901 -0 0
rfoot 18.5857 5.03166 -0.00217771
rtoes -17.3106 0 0
lowerback 2.84188 -0.393475 0.121745
upperback -0.277331 -0.508978 0.52277
thorax -1.87346 -0.252411 0.490004
lowerneck -8.51759 -7.82791 -0.390514
upperneck 4.76175 -10.5426 1.86451
head 3.1447 -5.16554 0.0996004
lclavicle 7.16438e-16 -5.41297e-15 1.27503e-32
lhumerus -49.2408 -29.7306 110.617
lradius 56.3072 -0 0
lwrist 4.94284 0 0
lhand -0.446969 -1.41205 0.000943244
lfingers 7.12502 -0 0
lthumb 25.162 26.9475 0.000169806
rclavicle 7.16438e-16 -5.41297e-15 1.27503e-32
rhumerus -50.6894 8.90653 -89.6601
rradius 65.4551 -0 0
rwrist 20.0599 0 0
rhand -23.6635 -24.1858 0.0240965
rfingers 7.12502 -0 0
rthumb 2.80074 -54.1284 0.0291792
486
root 4.26123 16.4433 -6.72588 6.81235 70.0076 -2.69158
lfemur -33.3032 -9.14774 -23.5618
ltibia 46.0715 -0 0
lfoot -21.2852 -2.30381 0.00423381
ltoes 18.3634 -0 0
rfemur -39.7412 -0.193293 10.1937
rtibia 82.7498 -0 0
rfoot 18.4079 5.10805 -0.00826527
rtoes -17.2882 0 0
lowerback 2.93634 -0.388174 0.0993801
upperback -0.254473 -0.500108 0.552756
thorax -1.90279 -0.247923 0.533434
lowerneck -8.5291 -7.89073 -0.440567
upperneck 4.8746 -10.6239 1.87482
head 3.18153 -5.205 0.0996953
lclavicle 4.99569e-16 -5.04532e-15 4.83908e-32
lhumerus -49.2131 -29.8257 110.75
lradius 56.312 -0 0
lwrist 4.95034 0 0
lhand -0.278412 -1.37712 0.00357995
lfingers 7.12502 -0 0
lthumb 25.3229 26.9541 0.000644472
rclavicle 4.99569e-16 -5.04532e-15 4.83908e-32
rhumerus -50.3264 9.64938 -89.7214
rradius 66.2299 -0 0
rwrist 19.8172 0 0
rhand -23.0369 -23.9524 0.0915112
rfingers 7.12502 -0 0
rthumb 3.40121 -53.8335 0.110814
